<svg class="icon" width="14" height="14" viewBox="0 0 14 14" fill="none" xmlns="http://www.w3.org/2000/svg"><path d="M3.06924 13.0697V4.25107H0.170841V13.0697H3.06955H3.06924ZM1.62065 3.04725C2.63117 3.04725 3.26029 2.37008 3.26029 1.52381C3.24137 0.658266 2.63117 0 1.63987 0C0.647881 0 0 0.658266 0 1.52374C0 2.37 0.62889 3.04717 1.60166 3.04717H1.62042L1.62065 3.04725ZM4.67355 13.0697H7.57172V8.1455C7.57172 7.88229 7.59064 7.61838 7.66721 7.43038C7.87663 6.90357 8.35352 6.35824 9.15439 6.35824C10.2029 6.35824 10.6226 7.16686 10.6226 8.35248V13.0697H13.5207V8.01336C13.5207 5.30477 12.091 4.04432 10.1841 4.04432C8.62075 4.04432 7.93414 4.92801 7.55266 5.52988H7.57195V4.25138H4.6737C4.71153 5.07867 4.67347 13.07 4.67347 13.07L4.67355 13.0697Z" fill="currentColor"/></svg>