<svg class="icon icon-instagram" xmlns="http://www.w3.org/2000/svg" width="16" height="16" viewBox="0 0 16 16" fill="none"><path d="M5.25867 7.88265C5.25867 6.43155 6.43541 5.25489 7.88738 5.25489C9.33935 5.25489 10.5167 6.43155 10.5167 7.88265C10.5167 9.33375 9.33935 10.5104 7.88738 10.5104C6.43541 10.5104 5.25867 9.33375 5.25867 7.88265ZM3.8373 7.88265C3.8373 10.1182 5.65052 11.9303 7.88738 11.9303C10.1242 11.9303 11.9375 10.1182 11.9375 7.88265C11.9375 5.64713 10.1242 3.835 7.88738 3.835C5.65052 3.835 3.8373 5.64713 3.8373 7.88265ZM11.1513 3.67451C11.1512 3.8616 11.2067 4.0445 11.3106 4.2001C11.4145 4.3557 11.5623 4.477 11.7352 4.54866C11.9082 4.62032 12.0985 4.63913 12.2821 4.60271C12.4657 4.56628 12.6344 4.47626 12.7668 4.34402C12.8992 4.21179 12.9894 4.04328 13.026 3.8598C13.0626 3.67633 13.0439 3.48613 12.9724 3.31325C12.9008 3.14038 12.7795 2.9926 12.6239 2.8886C12.4683 2.7846 12.2854 2.72905 12.0982 2.72897H12.0978C11.8469 2.72909 11.6062 2.82873 11.4288 3.00602C11.2513 3.18331 11.1515 3.42374 11.1513 3.67451ZM4.70088 14.2989C3.93189 14.2639 3.51392 14.1359 3.23616 14.0278C2.86791 13.8845 2.60517 13.7139 2.32892 13.4381C2.05267 13.1624 1.88168 12.9001 1.73895 12.5321C1.63067 12.2546 1.50258 11.8368 1.46762 11.0682C1.42938 10.2374 1.42175 9.98776 1.42175 7.88271C1.42175 5.77767 1.43001 5.52876 1.46762 4.69718C1.50264 3.92865 1.63168 3.51163 1.73895 3.23334C1.88231 2.86531 2.05305 2.60272 2.32892 2.32664C2.60479 2.05056 2.86728 1.87967 3.23616 1.73702C3.5138 1.62881 3.93189 1.50079 4.70088 1.46586C5.53227 1.42764 5.78202 1.42001 7.88738 1.42001C9.99274 1.42001 10.2427 1.42827 11.0748 1.46586C11.8438 1.50086 12.2611 1.62982 12.5395 1.73702C12.9078 1.87967 13.1705 2.05094 13.4468 2.32664C13.723 2.60235 13.8934 2.86531 14.0368 3.23334C14.145 3.51081 14.2731 3.92865 14.3081 4.69718C14.3463 5.52876 14.354 5.77767 14.354 7.88271C14.354 9.98776 14.3463 10.2367 14.3081 11.0682C14.2731 11.8368 14.1443 12.2545 14.0368 12.5321C13.8934 12.9001 13.7227 13.1627 13.4468 13.4381C13.1709 13.7136 12.9078 13.8845 12.5395 14.0278C12.2619 14.136 11.8438 14.264 11.0748 14.2989C10.2434 14.3372 9.99369 14.3448 7.88738 14.3448C5.78107 14.3448 5.53202 14.3372 4.70088 14.2989ZM4.63557 0.0477373C3.79591 0.0859524 3.22215 0.219011 2.72108 0.413871C2.20216 0.615099 1.76286 0.885064 1.32388 1.32309C0.884901 1.76111 0.615468 2.20084 0.414119 2.71945C0.219143 3.22054 0.086004 3.79364 0.047766 4.63279C0.00889696 5.47327 0 5.74197 0 7.88265C0 10.0233 0.00889696 10.292 0.047766 11.1325C0.086004 11.9717 0.219143 12.5448 0.414119 13.0458C0.615468 13.5641 0.884964 14.0044 1.32388 14.4422C1.7628 14.88 2.20216 15.1496 2.72108 15.3514C3.2231 15.5463 3.79591 15.6793 4.63557 15.7176C5.477 15.7558 5.74542 15.7653 7.88738 15.7653C10.0293 15.7653 10.2982 15.7564 11.1392 15.7176C11.9789 15.6793 12.5523 15.5463 13.0537 15.3514C13.5723 15.1496 14.0119 14.8802 14.4509 14.4422C14.8899 14.0042 15.1587 13.5641 15.3606 13.0458C15.5556 12.5448 15.6894 11.9717 15.727 11.1325C15.7652 10.2914 15.7741 10.0233 15.7741 7.88265C15.7741 5.74197 15.7652 5.47327 15.727 4.63279C15.6888 3.79357 15.5556 3.22022 15.3606 2.71945C15.1587 2.20115 14.8892 1.7618 14.4509 1.32309C14.0126 0.88437 13.5723 0.615099 13.0543 0.413871C12.5523 0.219011 11.9788 0.0853218 11.1398 0.0477373C10.2988 0.00952224 10.03 0 7.88801 0C5.74605 0 5.477 0.00889163 4.63557 0.0477373Z" fill="#1E1E1E"/><path d="M5.25867 7.88265C5.25867 6.43155 6.43541 5.25489 7.88738 5.25489C9.33935 5.25489 10.5167 6.43155 10.5167 7.88265C10.5167 9.33375 9.33935 10.5104 7.88738 10.5104C6.43541 10.5104 5.25867 9.33375 5.25867 7.88265ZM3.8373 7.88265C3.8373 10.1182 5.65052 11.9303 7.88738 11.9303C10.1242 11.9303 11.9375 10.1182 11.9375 7.88265C11.9375 5.64713 10.1242 3.835 7.88738 3.835C5.65052 3.835 3.8373 5.64713 3.8373 7.88265ZM11.1513 3.67451C11.1512 3.8616 11.2067 4.0445 11.3106 4.2001C11.4145 4.3557 11.5623 4.477 11.7352 4.54866C11.9082 4.62032 12.0985 4.63913 12.2821 4.60271C12.4657 4.56628 12.6344 4.47626 12.7668 4.34402C12.8992 4.21179 12.9894 4.04328 13.026 3.8598C13.0626 3.67633 13.0439 3.48613 12.9724 3.31325C12.9008 3.14038 12.7795 2.9926 12.6239 2.8886C12.4683 2.7846 12.2854 2.72905 12.0982 2.72897H12.0978C11.8469 2.72909 11.6062 2.82873 11.4288 3.00602C11.2513 3.18331 11.1515 3.42374 11.1513 3.67451ZM4.70088 14.2989C3.93189 14.2639 3.51392 14.1359 3.23616 14.0278C2.86791 13.8845 2.60517 13.7139 2.32892 13.4382C2.05267 13.1624 1.88168 12.9001 1.73895 12.5321C1.63067 12.2546 1.50258 11.8368 1.46762 11.0682C1.42938 10.2374 1.42175 9.98776 1.42175 7.88271C1.42175 5.77767 1.43001 5.52876 1.46762 4.69718C1.50264 3.92865 1.63168 3.51163 1.73895 3.23334C1.88231 2.86531 2.05305 2.60272 2.32892 2.32664C2.60479 2.05056 2.86728 1.87967 3.23616 1.73702C3.5138 1.62881 3.93189 1.50079 4.70088 1.46586C5.53227 1.42764 5.78202 1.42001 7.88738 1.42001C9.99274 1.42001 10.2427 1.42827 11.0748 1.46586C11.8438 1.50086 12.2611 1.62982 12.5395 1.73702C12.9078 1.87967 13.1705 2.05094 13.4468 2.32664C13.723 2.60235 13.8934 2.86531 14.0368 3.23334C14.145 3.51081 14.2731 3.92865 14.3081 4.69718C14.3463 5.52876 14.354 5.77767 14.354 7.88271C14.354 9.98776 14.3463 10.2367 14.3081 11.0682C14.2731 11.8368 14.1443 12.2545 14.0368 12.5321C13.8934 12.9001 13.7227 13.1627 13.4468 13.4382C13.1709 13.7136 12.9078 13.8845 12.5395 14.0278C12.2619 14.136 11.8438 14.264 11.0748 14.2989C10.2434 14.3372 9.99369 14.3448 7.88738 14.3448C5.78107 14.3448 5.53202 14.3372 4.70088 14.2989ZM4.63557 0.0477373C3.79591 0.0859524 3.22215 0.219012 2.72108 0.413871C2.20216 0.615099 1.76286 0.885064 1.32388 1.32309C0.884901 1.76111 0.615468 2.20084 0.414119 2.71945C0.219143 3.22054 0.086004 3.79364 0.047766 4.63279C0.00889697 5.47327 0 5.74197 0 7.88265C0 10.0233 0.00889697 10.292 0.047766 11.1325C0.086004 11.9717 0.219143 12.5448 0.414119 13.0458C0.615468 13.5641 0.884964 14.0044 1.32388 14.4422C1.7628 14.88 2.20216 15.1496 2.72108 15.3514C3.2231 15.5463 3.79591 15.6793 4.63557 15.7176C5.477 15.7558 5.74542 15.7653 7.88738 15.7653C10.0293 15.7653 10.2982 15.7564 11.1392 15.7176C11.9789 15.6793 12.5523 15.5463 13.0537 15.3514C13.5723 15.1496 14.0119 14.8802 14.4509 14.4422C14.8899 14.0042 15.1587 13.5641 15.3606 13.0458C15.5556 12.5448 15.6894 11.9717 15.727 11.1325C15.7652 10.2914 15.7741 10.0233 15.7741 7.88265C15.7741 5.74197 15.7652 5.47327 15.727 4.63279C15.6888 3.79357 15.5556 3.22022 15.3606 2.71945C15.1587 2.20115 14.8892 1.7618 14.4509 1.32309C14.0126 0.88437 13.5723 0.615099 13.0543 0.413871C12.5523 0.219012 11.9788 0.0853218 11.1398 0.0477373C10.2988 0.00952224 10.03 0 7.88801 0C5.74605 0 5.477 0.00889163 4.63557 0.0477373Z" fill="currentColor"/></svg>