<svg width="36" height="36" viewBox="0 0 36 36" fill="none" xmlns="http://www.w3.org/2000/svg"><path d="M14.1843 28.333C15.2268 28.333 16.0718 27.4879 16.0718 26.4454C16.0718 25.4029 15.2268 24.5579 14.1843 24.5579C13.1419 24.5579 12.2969 25.4029 12.2969 26.4454C12.2969 27.4879 13.1419 28.333 14.1843 28.333Z" fill="currentColor"/><path d="M21.8135 28.333C22.8561 28.333 23.7011 27.4879 23.7011 26.4454C23.7011 25.4029 22.8561 24.5579 21.8135 24.5579C20.771 24.5579 19.9258 25.4029 19.9258 26.4454C19.9258 27.4879 20.771 28.333 21.8135 28.333Z" fill="currentColor"/><path d="M10.7427 9.72949H8.75781L9.37092 12.95L10.7232 20.0527L11.1805 22.4462L11.3266 23.2343H25.2499L27.2055 12.95H11.3461L10.7427 9.72949ZM24.8703 14.8959L23.6541 21.2884H12.9514L11.7352 14.8959H24.8703Z" fill="currentColor"/><path d="M17.9991 35.007C27.3917 35.007 35.006 27.3927 35.006 18.0001C35.006 8.60741 27.3917 0.993164 17.9991 0.993164C8.60643 0.993164 0.992188 8.60741 0.992188 18.0001C0.992188 27.3927 8.60643 35.007 17.9991 35.007Z" stroke="currentColor" stroke-width="1.86207"/></svg>